<svg xmlns="http://www.w3.org/2000/svg" viewBox="0 0 64 64">
  <rect width="64" height="64" fill="#faf8f6"/>
  <g transform="translate(32 34) scale(3.2) translate(-49.6 -21.8)">
    <path
      transform="matrix(1,0,0,-1,0,28.3465)"
      fill="#60413d"
      d="M51.0769 9.4493C51.2685 9.4493 51.4553 9.4141 51.6353 9.3441 51.8153 9.2741 51.9752 9.1675 52.1135 9.0258 52.2519 8.8843 52.3636 8.7058 52.4452 8.4909 52.5285 8.276 52.5702 8.0226 52.5702 7.7292 52.5702 7.4044 52.5186 7.1008 52.4137 6.8193 52.3103 6.5375 52.1736 6.2725 52.0036 6.0259 51.8352 5.7776 51.6436 5.546 51.4304 5.3294 51.2169 5.1126 51.0021 4.9059 50.7835 4.7092 50.5653 4.5128 50.3538 4.3243 50.1503 4.1426 49.947 3.9626 49.7721 3.786 49.6253 3.6145H49.5819C49.4354 3.786 49.2619 3.9626 49.0603 4.1426 48.8588 4.3243 48.6488 4.5128 48.4305 4.7092 48.2119 4.9059 47.9954 5.1126 47.7819 5.3294 47.5705 5.546 47.3788 5.7776 47.2088 6.0259 47.0404 6.2725 46.9037 6.5375 46.7989 6.8193 46.6954 7.1008 46.6421 7.4044 46.6421 7.7292 46.6421 8.0226 46.6838 8.276 46.7671 8.4909 46.8505 8.7058 46.9604 8.8843 47.0988 9.0258 47.2371 9.1675 47.397 9.2741 47.577 9.3441 47.7587 9.4141 47.9455 9.4493 48.1371 9.4493 48.3219 9.4493 48.4886 9.4243 48.6371 9.3759 48.7854 9.326 48.9186 9.2608 49.0371 9.1774 49.157 9.0941 49.2605 9.0009 49.3503 8.8943 49.4405 8.7891 49.517 8.6808 49.5819 8.5691H49.6253C49.6902 8.6808 49.7687 8.7891 49.8603 8.8943 49.9521 9.0009 50.057 9.0941 50.1752 9.1774 50.2937 9.2608 50.4269 9.326 50.5752 9.3759 50.7237 9.4243 50.8904 9.4493 51.0769 9.4493Z"
    />
  </g>
</svg>
